<svg xmlns="http://www.w3.org/2000/svg" id="uuid-8356a505-df82-428e-865e-9d3dc3f6ac52" viewBox="0 0 1000 1500"><defs><style>.uuid-55a817db-5ad1-48f4-82aa-295030f2d7e9{fill:#cbf8e4;}.uuid-05ff2350-d916-48d4-aa7d-b0a2b0c53a6b{fill:#106666;}</style></defs><g id="uuid-bb687bce-6737-4dda-9aa6-f07c277c11b9"><g id="uuid-81c68f92-3ec6-4c4a-b321-eebd5bfb3756"><rect id="uuid-6e0985b2-6151-4afb-9993-17330bc78275" class="uuid-05ff2350-d916-48d4-aa7d-b0a2b0c53a6b" width="1000" height="1500"></rect><g id="uuid-5990630d-e070-46e5-81bd-6a0ec9b59a95"><path class="uuid-55a817db-5ad1-48f4-82aa-295030f2d7e9" d="M124.91,241.05c64.84-52.22,117.72-123.01,148.9-199.33,5.66-13.88,10.59-27.8,14.76-41.73H111.64c-21.45,40.46-51.93,76.82-85.15,103.58-8.6,6.93-17.44,13.5-26.49,19.75v196.55c43.37-21.46,85.38-46.98,124.91-78.82ZM142.18,1500c68.87-73.02,133.09-156.54,191.88-249.63,117.05-185.32,204.17-388.93,288.43-585.84,33.6-78.55,68.35-159.77,104.26-237.95,45.85-99.85,102.19-210.71,190.8-262.36,24.29-14.18,53.45-21.73,82.45-22.22V0h-136.04c-8.5,3.96-16.77,8.29-24.8,12.96-59.56,34.73-111.62,85.31-159.14,154.67-41.02,59.85-73.35,126.29-99.58,183.38-36.87,80.3-72.09,162.6-106.15,242.19-81.52,190.56-165.84,387.6-275.43,561.11-44.36,70.24-111.21,163.55-198.85,251.03v94.66h142.18Z"></path><path class="uuid-55a817db-5ad1-48f4-82aa-295030f2d7e9" d="M442.77,1310.78c1.06-58.31,9.07-117.68,23.78-176.47,14.32-57.21,34.7-112.72,60.57-165.02,45.72-92.41,107.99-180.4,190.36-268.97,76.87-82.64,160.44-154.29,232.05-213.48,18.3-15.12,35.11-29.82,50.46-44.14v221.91c-145.61,124.31-257.57,241-328.77,384.89-75.58,152.77-86.47,322.41-32.38,450.52h-173.04c-16.42-59.24-24.26-122.9-23.04-189.22Z"></path></g></g></g></svg>