<svg xmlns="http://www.w3.org/2000/svg" id="uuid-1cffbf60-35af-4a50-8d0d-10fdf0092187" data-name="Layer 2" viewBox="0 0 315.5 71.470001220703125"><g id="uuid-0b75460c-d7b3-4489-bb41-bcb17f83531c" data-name="uuid-8d9830c5-b5dd-44c4-b578-23261d7c344e"><path d="M6.650000095367432,70.080001831054688c-2.490000247955322-.919998168945312-4.710000038146973-2.430000305175781-6.650000095367432-4.529998779296875l6.21999979019165-6.770000457763672c1.049999713897705,1.209999084472656,2.28000020980835,2.150001525878906,3.700000286102295,2.829998016357422,1.420000076293945.680000305175781,2.909999847412109,1.020000457763672,4.489999771118164,1.020000457763672s2.729999542236328-.330001831054688,3.619998931884766-.979999542236328c.889999389648438-.659999847412109,1.340000152587891-1.540000915527344,1.340000152587891-2.639999389648438s-.469999313354492-1.819999694824219-1.420000076293945-2.319999694824219-2.470000267028809-.979999542236328-4.569999694824219-1.459999084472656c-3.359999656677246-.790000915527344-6.289999961853027-1.990001678466797-8.779999732971191-3.619998931884766-2.490000009536743-1.630001068115234-3.740000009536743-4.299999237060547-3.740000009536743-8.029998779296875,0-2.310001373291016.579999923706055-4.400001525878906,1.730000019073486-6.259998321533203,1.149999856948853-1.860000610351562,2.81000018119812-3.330001831054688,4.959999799728394-4.409999847412109,2.149999618530273-1.079999923706055,4.670000076293945-1.610000610351562,7.559999465942383-1.610000610351562,3.100000381469727,0,5.789999008178711.629999160766602,8.069999694824219,1.889999389648438,2.280000686645508,1.259998321533203,3.979999542236328,2.990001678466797,5.079999923706055,5.200000762939453l-7.950000762939453,4.330001831054688c-1.209999084472656-1.630001068115234-2.860000610351562-2.439998626708984-4.960000038146973-2.439998626708984-1.310000419616699,0-2.340000152587891.299999237060547-3.069999694824219.909999847412109-.739999771118164.599998474121094-1.100000381469727,1.330001831054688-1.100000381469727,2.169998168945312,0,1,.510000228881836,1.720001220703125,1.539999961853027,2.169998168945312,1.020000457763672.450000762939453,2.659999847412109.909999847412109,4.920000076293945,1.380001068115234,3.520000457763672.680000305175781,6.360000610351562,2,8.539999008178711,3.939998626708984,2.180000305175781,1.939998626708984,3.270000457763672,4.569999694824219,3.270000457763672,7.869998931884766,0,3.880001068115234-1.420000076293945,6.979999542236328-4.25,9.289997100830078s-6.459999084472656,3.459999084472656-10.869999885559082,3.459999084472656c-2.630000114440918,0-5.179999351501465-.459999084472656-7.679999828338623-1.379997253417969l.000002861022949-.010002136230469Z"></path><path d="M43.860000610351562,68.739997863769531c-3.150001525878906-1.80999755859375-5.639999389648438-4.25-7.479999542236328-7.319999694824219s-2.759998321533203-6.419998168945312-2.759998321533203-10.040000915527344.919998168945312-6.970001220703125,2.759998321533203-10.040000915527344,4.329998016357422-5.510002136230469,7.479999542236328-7.319999694824219c3.150001525878906-1.810001373291016,6.590000152587891-2.719999313354492,10.310001373291016-2.719999313354492,3.939998626708984,0,7.540000915527344.89000129699707,10.829998016357422,2.679998397827148,3.279998779296875,1.790000915527344,5.599998474121094,4.25,6.970001220703125,7.400001525878906l-9.369998931884766,4.799999237060547c-.840000152587891-1.419998168945312-2-2.540000915527344-3.459999084472656-3.389999389648438-1.470001220703125-.840000152587891-3.119998931884766-1.259998321533203-4.959999084472656-1.259998321533203-2.829998016357422,0-5.180000305175781.950000762939453-7.049999237060547,2.830001831054688-1.860000610351562,1.889999389648438-2.790000915527344,4.229999542236328-2.790000915527344,7.010002136230469s.930000305175781,5.119998931884766,2.790000915527344,7.010002136230469c1.860000610351562,1.889999389648438,4.209999084472656,2.830001831054688,7.049999237060547,2.830001831054688,1.840000152587891,0,3.490001678466797-.419998168945312,4.959999084472656-1.259998321533203,1.470001220703125-.840000152587891,2.619998931884766-1.970001220703125,3.459999084472656-3.389999389648438l9.369998931884766,4.799999237060547c-1.370002746582031,3.150001525878906-3.69000244140625,5.620002746582031-6.970001220703125,7.400001525878906s-6.889999389648438,2.680000305175781-10.830001831054688,2.680000305175781c-3.729999542236328,0-7.169998168945312-.910003662109375-10.310001373291016-2.720001220703125l.000003814697266.019989013671875Z"></path><path d="M109.010002136230469,33.630001068115234c2.550003051757812,1.439998626708984,4.510002136230469,3.450000762939453,5.909996032714844,6.020000457763672,1.389999389648438,2.569999694824219,2.089996337890625,5.510002136230469,2.089996337890625,8.819999694824219v21.970001220703125h-10.709999084472656v-20c0-2.779998779296875-.790000915527344-5.010002136230469-2.360000610351562-6.689998626708984-1.569999694824219-1.680000305175781-3.669998168945312-2.520000457763672-6.300003051757812-2.520000457763672s-4.720001220703125.840000152587891-6.300003051757812,2.520000457763672c-1.569999694824219,1.680000305175781-2.360000610351562,3.909999847412109-2.360000610351562,6.689998626708984v20h-10.709999084472656V15.319999694824219h10.709999084472656v20.629997253417969c2.830001831054688-2.990001678466797,6.590003967285156-4.489999771118164,11.260002136230469-4.489999771118164,3.30999755859375,0,6.230003356933594.719999313354492,8.779998779296875,2.170000076293945l-.009986877441406.000003814697266Z"></path><path d="M133.460006713867188,68.739997863769531c-3.149993896484375-1.80999755859375-5.639999389648438-4.25-7.480003356933594-7.319999694824219-1.839996337890625-3.069999694824219-2.760002136230469-6.419998168945312-2.760002136230469-10.040000915527344s.919998168945312-6.970001220703125,2.760002136230469-10.040000915527344c1.839996337890625-3.069999694824219,4.329994201660156-5.510002136230469,7.480003356933594-7.319999694824219,3.149993896484375-1.810001373291016,6.589996337890625-2.719999313354492,10.30999755859375-2.719999313354492s7.169998168945312.910001754760742,10.30999755859375,2.719999313354492c3.149993896484375,1.810001373291016,5.639999389648438,4.25,7.479995727539062,7.319999694824219s2.759994506835938,6.419998168945312,2.759994506835938,10.040000915527344-.919998168945312,6.970001220703125-2.759994506835938,10.040000915527344-4.330001831054688,5.510002136230469-7.479995727539062,7.319999694824219-6.589996337890625,2.720001220703125-10.30999755859375,2.720001220703125-7.160003662109375-.910003662109375-10.30999755859375-2.720001220703125ZM150.779998779296875,58.509998321533203c1.889999389648438-1.919998168945312,2.830001831054688-4.290000915527344,2.830001831054688-7.130001068115234s-.949996948242188-5.209999084472656-2.830001831054688-7.119998931884766c-1.889999389648438-1.919998168945312-4.229995727539062-2.869998931884766-7.009994506835938-2.869998931884766s-5.1199951171875.959999084472656-7.009994506835938,2.869998931884766c-1.889999389648438,1.919998168945312-2.830001831054688,4.290000915527344-2.830001831054688,7.119998931884766s.94000244140625,5.209999084472656,2.830001831054688,7.130001068115234c1.889999389648438,1.919998168945312,4.220001220703125,2.869998931884766,7.009994506835938,2.869998931884766s5.1199951171875-.959999084472656,7.009994506835938-2.869998931884766Z"></path><path d="M178.339996337890625,68.739997863769531c-3.149993896484375-1.80999755859375-5.639999389648438-4.25-7.479995727539062-7.319999694824219s-2.759994506835938-6.419998168945312-2.759994506835938-10.040000915527344.919998168945312-6.970001220703125,2.759994506835938-10.040000915527344,4.330001831054688-5.510002136230469,7.479995727539062-7.319999694824219c3.149993896484375-1.810001373291016,6.589996337890625-2.719999313354492,10.30999755859375-2.719999313354492s7.169998168945312.910001754760742,10.30999755859375,2.719999313354492c3.149993896484375,1.810001373291016,5.639999389648438,4.25,7.479995727539062,7.319999694824219s2.759994506835938,6.419998168945312,2.759994506835938,10.040000915527344-.919998168945312,6.970001220703125-2.759994506835938,10.040000915527344-4.330001831054688,5.510002136230469-7.479995727539062,7.319999694824219-6.589996337890625,2.720001220703125-10.30999755859375,2.720001220703125-7.160003662109375-.910003662109375-10.30999755859375-2.720001220703125ZM195.660003662109375,58.509998321533203c1.889999389648438-1.919998168945312,2.830001831054688-4.290000915527344,2.830001831054688-7.130001068115234s-.949996948242188-5.209999084472656-2.830001831054688-7.119998931884766c-1.889999389648438-1.919998168945312-4.229995727539062-2.869998931884766-7.009994506835938-2.869998931884766s-5.1199951171875.959999084472656-7.009994506835938,2.869998931884766c-1.889999389648438,1.919998168945312-2.830001831054688,4.290000915527344-2.830001831054688,7.119998931884766s.949996948242188,5.209999084472656,2.830001831054688,7.130001068115234c1.889999389648438,1.919998168945312,4.220001220703125,2.869998931884766,7.009994506835938,2.869998931884766s5.1199951171875-.959999084472656,7.009994506835938-2.869998931884766Z"></path><path d="M226.289993286132812,70.989997863769531c-3.8800048828125,0-6.759994506835938-1.089996337890625-8.6199951171875-3.269996643066406s-2.789993286132812-4.919998168945312-2.789993286132812-8.229999542236328c0-.729999542236328.100006103515625-1.840000152587891.32000732421875-3.310001373291016l7.240005493164062-40.860000610351562h10.8699951171875l-7.169998168945312,40.549999237060547c-.110000610351562.840000152587891-.160003662109375,1.419998168945312-.160003662109375,1.729999542236328,0,1.310001373291016.300003051757812,2.310001373291016.910003662109375,2.990001678466797.600006103515625.680000305175781,1.479995727539062,1.049999237060547,2.639999389648438,1.099998474121094l-1.729995727539062,9.210002899169922-1.5.080001831054688-.010025024414062.009994506835938Z"></path><path d="M248.949996948242188,28.860000610351562c1.449996948242188,0,2.699996948242188-.530000686645508,3.740005493164062-1.590000152587891,1.039993286132812-1.059999465942383,1.55999755859375-2.309999465942383,1.55999755859375-3.770000457763672s-.529998779296875-2.700000762939453-1.589996337890625-3.739999771118164-2.289993286132812-1.559999465942383-3.699996948242188-1.559999465942383-2.710006713867188.520000457763672-3.770004272460938,1.559999465942383-1.589996337890625,2.280000686645508-1.589996337890625,3.739999771118164.529998779296875,2.709999084472656,1.589996337890625,3.770000457763672,2.30999755859375,1.590000152587891,3.770004272460938,1.590000152587891h-.010009765625Z" style="fill: #0067ff;"></path><polygon points="236.289993286132812 70.44000244140625 246.990005493164062 70.44000244140625 253.610000610351562 32.330001831054688 242.899993896484375 32.330001831054688 236.289993286132812 70.44000244140625"></polygon><path d="M277.30999755859375,41.029998779296875c-.8900146484375-.5-2-.75-3.30999755859375-.75-1.209991455078125,0-2.1400146484375.299999237060547-2.790008544921875.909999847412109-.660003662109375.599998474121094-.980010986328125,1.299999237060547-.980010986328125,2.090000152587891,0,.840000152587891.470001220703125,1.549999237060547,1.420013427734375,2.130001068115234s2.260009765625,1.130001068115234,3.94000244140625,1.650001525878906c3.57000732421875,1.159999847412109,6.209991455078125,2.619998931884766,7.910003662109375,4.409999847412109,1.709991455078125,1.790000915527344,2.55999755859375,4.069999694824219,2.55999755859375,6.849998474121094,0,2.630001068115234-.670013427734375,4.930000305175781-2.010009765625,6.930000305175781s-3.160003662109375,3.529998779296875-5.470001220703125,4.610000610351562-4.8800048828125,1.610000610351562-7.720001220703125,1.610000610351562c-3.20001220703125,0-6.1400146484375-.620002746582031-8.82000732421875-1.849998474121094s-4.720001220703125-3-6.139999389648438-5.30999755859375l6.849990844726562-6.220001220703125c1,1.419998168945312,2.20001220703125,2.529998779296875,3.6199951171875,3.349998474121094,1.420013427734375.810001373291016,3.019989013671875,1.220001220703125,4.79998779296875,1.220001220703125,1.470001220703125,0,2.6199951171875-.299999237060547,3.459991455078125-.909999847412109.839996337890625-.599998474121094,1.260009765625-1.430000305175781,1.260009765625-2.479999542236328,0-.950000762939453-.42999267578125-1.729999542236328-1.29998779296875-2.360000610351562s-2.220001220703125-1.229999542236328-4.04998779296875-1.810001373291016c-7.239990234375-2.409999847412109-10.8699951171875-6.170001983642578-10.8699951171875-11.259998321533203,0-2.259998321533203.579986572265625-4.340000152587891,1.730010986328125-6.260002136230469,1.149993896484375-1.919998168945312,2.82000732421875-3.439998626708984,5-4.569999694824219,2.17999267578125-1.129999160766602,4.739990234375-1.690000534057617,7.67999267578125-1.690000534057617,3.30999755859375,0,6.149993896484375.710000991821289,8.540008544921875,2.129999160766602s4,3.180000305175781,4.839996337890625,5.279998779296875l-7.720001220703125,4.650001525878906c-.739990234375-1.049999237060547-1.54998779296875-1.819999694824219-2.44000244140625-2.319999694824219l.010009765625-.030002593994141Z"></path><path d="M302.980010986328125,50.360000610351562c-.209991455078125,1-.32000732421875,2-.32000732421875,2.990001678466797,0,4.930000305175781,2.910003662109375,7.529998779296875,8.739990234375,7.790000915527344l-1.730010986328125,10.079998016357422c-5.980010986328125,0-10.459991455078125-1.44000244140625-13.420013427734375-4.330001831054688-2.970001220703125-2.889999389648438-4.45001220703125-6.739997863769531-4.45001220703125-11.569999694824219,0-1.520000457763672.160003662109375-3.099998474121094.470001220703125-4.720001220703125l5.350006103515625-30.549999237060547h10.709991455078125l-1.019989013671875,5.909999847412109c-.160003662109375.790000915527344-.239990234375,1.520000457763672-.239990234375,2.209999084472656,0,2.360000610351562.720001220703125,4.25,2.170013427734375,5.669998168945312,1.44000244140625,1.419998168945312,3.529998779296875,2.180000305175781,6.260009765625,2.279998779296875l-1.80999755859375,10.239997863769531c-4.519989013671875-.310001373291016-7.55999755859375-1.779998779296875-9.1300048828125-4.409999847412109l-1.57000732421875,8.420001983642578-.009979248046875-.009994506835938Z"></path><path d="M263.739990234375,23.540000915527344h-4.54998779296875c0-5.559999465942383-4.610000610351562-10.090000152587891-10.270004272460938-10.090000152587891v-4.550000190734863c8.169998168945312,0,14.819992065429688,6.570000648498535,14.819992065429688,14.640000343322754Z" style="fill: #0067ff;"></path><path d="M272.010009765625,23.540000915527344h-4.790008544921875c0-10.340000152587891-8.209991455078125-18.75-18.30999755859375-18.75V0c12.730010986328125,0,23.100006103515625,10.560000419616699,23.100006103515625,23.540000915527344Z" style="fill: #0067ff;"></path></g></svg>