<svg width="20" height="20" viewBox="0 0 20 20" fill="none" xmlns="http://www.w3.org/2000/svg">
<g clip-path="url(#clip0_11_313)">
<path d="M19.0442 0.956666C18.4776 0.390997 17.7098 0.0732803 16.9092 0.0732803C16.1086 0.0732803 15.3407 0.390997 14.7742 0.956666L1.22083 14.51C0.83271 14.8959 0.524969 15.355 0.315415 15.8607C0.105862 16.3663 -0.00134404 16.9085 8.65869e-08 17.4558V19.1667C8.65869e-08 19.3877 0.0877975 19.5996 0.244078 19.7559C0.400358 19.9122 0.61232 20 0.833333 20H2.54417C3.09147 20.0015 3.63364 19.8945 4.1393 19.6851C4.64495 19.4757 5.10405 19.168 5.49 18.78L19.0442 5.22583C19.6096 4.65933 19.9271 3.89164 19.9271 3.09125C19.9271 2.29086 19.6096 1.52317 19.0442 0.956666ZM4.31167 17.6017C3.84167 18.0685 3.20664 18.3314 2.54417 18.3333H1.66667V17.4558C1.66582 17.1274 1.73013 16.8021 1.85586 16.4987C1.9816 16.1953 2.16626 15.9199 2.39917 15.6883L12.685 5.4025L14.6017 7.31917L4.31167 17.6017ZM17.865 4.0475L15.7767 6.13667L13.86 4.22417L15.9492 2.135C16.075 2.00942 16.2244 1.90986 16.3887 1.84201C16.553 1.77415 16.7291 1.73932 16.9069 1.73952C17.0847 1.73971 17.2607 1.77492 17.4249 1.84313C17.589 1.91135 17.7382 2.01123 17.8638 2.13708C17.9893 2.26293 18.0889 2.41229 18.1567 2.57661C18.2246 2.74094 18.2594 2.91702 18.2592 3.09481C18.259 3.27259 18.2238 3.4486 18.1556 3.61278C18.0874 3.77696 17.9875 3.92609 17.8617 4.05167L17.865 4.0475Z" fill="#666666"/>
</g>
<defs>
<clipPath id="clip0_11_313">
<rect width="20" height="20" fill="white"/>
</clipPath>
</defs>
</svg>
